<svg width="142" height="46" viewBox="0 0 142 46" fill="none" xmlns="http://www.w3.org/2000/svg">
<path d="M0 10.5C0 7.23841 0 5.60761 0.532843 4.32122C1.2433 2.60602 2.60602 1.2433 4.32122 0.532843C5.60761 0 7.23841 0 10.5 0H131.5C134.762 0 136.392 0 137.679 0.532843C139.394 1.2433 140.757 2.60602 141.467 4.32122C142 5.60761 142 7.23841 142 10.5V35.5C142 38.7616 142 40.3924 141.467 41.6788C140.757 43.394 139.394 44.7567 137.679 45.4672C136.392 46 134.762 46 131.5 46H10.5C7.23841 46 5.60761 46 4.32122 45.4672C2.60602 44.7567 1.2433 43.394 0.532843 41.6788C0 40.3924 0 38.7616 0 35.5V10.5Z" fill="white"/>
<path d="M96.4722 22.0812V24.7158H94.7729V26.4436H96.4722V32.3144C96.4722 34.319 97.4054 35.1209 99.753 35.1209C100.166 35.1209 100.558 35.0731 100.902 35.0159V33.3071C100.608 33.3358 100.421 33.3549 100.097 33.3549C99.0457 33.3549 98.5841 32.8776 98.5841 31.7893V26.4436H100.902V24.7158H98.5841V22.0812H96.4722Z" fill="black"/>
<path d="M106.883 35.264C110.006 35.264 111.922 33.2308 111.922 29.8611C111.922 26.5105 109.996 24.4676 106.883 24.4676C103.759 24.4676 101.834 26.5105 101.834 29.8611C101.834 33.2308 103.749 35.264 106.883 35.264ZM106.883 33.4408C105.046 33.4408 104.014 32.133 104.014 29.8611C104.014 27.6082 105.046 26.2909 106.883 26.2909C108.71 26.2909 109.751 27.6082 109.751 29.8611C109.751 32.1234 108.71 33.4408 106.883 33.4408Z" fill="black"/>
<path d="M113.56 35.0636H115.672V28.9256C115.672 27.465 116.802 26.4818 118.403 26.4818C118.776 26.4818 119.405 26.5486 119.582 26.6059V24.5822C119.356 24.5249 118.953 24.4963 118.639 24.4963C117.244 24.4963 116.055 25.2409 115.751 26.2623H115.594V24.6681H113.56V35.0636Z" fill="black"/>
<path d="M124.825 26.2145C126.387 26.2145 127.409 27.2741 127.458 28.9065H122.055C122.173 27.2837 123.264 26.2145 124.825 26.2145ZM127.448 32.2571C127.055 33.0685 126.181 33.5171 124.904 33.5171C123.214 33.5171 122.124 32.3621 122.055 30.5388V30.4243H129.609V29.7083C129.609 26.4436 127.811 24.4676 124.835 24.4676C121.82 24.4676 119.904 26.5773 119.904 29.8992C119.904 33.2212 121.78 35.264 124.845 35.264C127.291 35.264 129 34.1185 129.481 32.2571H127.448Z" fill="black"/>
<path d="M82.623 31.2247C82.7859 33.7774 84.9748 35.4099 88.2326 35.4099C91.7145 35.4099 93.8932 33.6982 93.8932 30.9674C93.8932 28.8204 92.6511 27.6332 89.6376 26.9505L88.0188 26.5646C86.1048 26.1293 85.3311 25.5455 85.3311 24.5264C85.3311 23.2402 86.5324 22.3992 88.3344 22.3992C90.0448 22.3992 91.2258 23.2204 91.4396 24.5363H93.659C93.5267 22.1321 91.348 20.4402 88.365 20.4402C85.158 20.4402 83.02 22.1321 83.02 24.6748C83.02 26.7724 84.2316 28.019 86.8888 28.6226L88.7824 29.0678C90.7269 29.513 91.5821 30.166 91.5821 31.2544C91.5821 32.5208 90.2382 33.441 88.4057 33.441C86.4408 33.441 85.0766 32.5802 84.8831 31.2247H82.623Z" fill="black"/>
<path d="M60.7463 24.4963C59.2926 24.4963 58.0353 25.2027 57.387 26.3864H57.2298V24.6681H55.1966V38.5192H57.3084V33.4885H57.4754C58.0353 34.5863 59.2435 35.2354 60.766 35.2354C63.4672 35.2354 65.1861 33.1639 65.1861 29.8611C65.1861 26.5582 63.4672 24.4963 60.7463 24.4963ZM60.1471 33.393C58.3791 33.393 57.2691 32.0375 57.2691 29.8706C57.2691 27.6941 58.3791 26.3386 60.157 26.3386C61.9447 26.3386 63.0153 27.6655 63.0153 29.8611C63.0153 32.0662 61.9447 33.393 60.1471 33.393Z" fill="black"/>
<path d="M72.5759 24.4963C71.1221 24.4963 69.8648 25.2027 69.2165 26.3864H69.0594V24.6681H67.0261V38.5192H69.1379V33.4885H69.3049C69.8648 34.5863 71.073 35.2354 72.5955 35.2354C75.2967 35.2354 77.0157 33.1639 77.0157 29.8611C77.0157 26.5582 75.2967 24.4963 72.5759 24.4963ZM71.9767 33.393C70.2086 33.393 69.0987 32.0375 69.0987 29.8706C69.0987 27.6941 70.2086 26.3386 71.9865 26.3386C73.7742 26.3386 74.8449 27.6655 74.8449 29.8611C74.8449 32.0662 73.7742 33.393 71.9767 33.393Z" fill="black"/>
<path d="M51.4075 35.0636H53.8306L48.5263 20.7865H46.0728L40.7686 35.0636H43.1101L44.4642 31.2742H50.0636L51.4075 35.0636ZM47.1825 23.3787H47.3555L49.4833 29.4141H45.0445L47.1825 23.3787Z" fill="black"/>
<path d="M42.1875 10.0176V16.905H44.7463C46.8581 16.905 48.0811 15.6401 48.0811 13.4398C48.0811 11.2729 46.8483 10.0176 44.7463 10.0176H42.1875ZM43.2876 10.9913H44.6235C46.092 10.9913 46.9613 11.8981 46.9613 13.4541C46.9613 15.034 46.1067 15.9313 44.6235 15.9313H43.2876V10.9913Z" fill="black"/>
<path d="M51.8264 17.0052C53.3882 17.0052 54.3459 15.9886 54.3459 14.3037C54.3459 12.6284 53.3833 11.607 51.8264 11.607C50.2646 11.607 49.302 12.6284 49.302 14.3037C49.302 15.9886 50.2597 17.0052 51.8264 17.0052ZM51.8264 16.0936C50.908 16.0936 50.3923 15.4397 50.3923 14.3037C50.3923 13.1773 50.908 12.5186 51.8264 12.5186C52.7399 12.5186 53.2605 13.1773 53.2605 14.3037C53.2605 15.4349 52.7399 16.0936 51.8264 16.0936Z" fill="black"/>
<path d="M62.5016 11.7072H61.4457L60.4929 15.6735H60.4094L59.3093 11.7072H58.2975L57.1974 15.6735H57.1188L56.1611 11.7072H55.0905L56.5638 16.905H57.6492L58.7494 13.0771H58.8329L59.9379 16.905H61.0331L62.5016 11.7072Z" fill="black"/>
<path d="M63.7176 16.905H64.7736V13.8646C64.7736 13.0532 65.2696 12.5473 66.0505 12.5473C66.8314 12.5473 67.2047 12.9625 67.2047 13.7978V16.905H68.2606V13.54C68.2606 12.3038 67.6025 11.607 66.409 11.607C65.6036 11.607 65.0732 11.9554 64.8129 12.5329H64.7343V11.7072H63.7176V16.905Z" fill="black"/>
<path d="M69.9236 16.905H70.9795V9.67871H69.9236V16.905Z" fill="black"/>
<path d="M74.9508 17.0052C76.5125 17.0052 77.4702 15.9886 77.4702 14.3037C77.4702 12.6284 76.5076 11.607 74.9508 11.607C73.389 11.607 72.4263 12.6284 72.4263 14.3037C72.4263 15.9886 73.3841 17.0052 74.9508 17.0052ZM74.9508 16.0936C74.0323 16.0936 73.5167 15.4397 73.5167 14.3037C73.5167 13.1773 74.0323 12.5186 74.9508 12.5186C75.8643 12.5186 76.3849 13.1773 76.3849 14.3037C76.3849 15.4349 75.8643 16.0936 74.9508 16.0936Z" fill="black"/>
<path d="M80.6164 16.127C80.0418 16.127 79.6243 15.8549 79.6243 15.3872C79.6243 14.929 79.9583 14.6855 80.695 14.6378L82.0014 14.5567V14.991C82.0014 15.6354 81.4121 16.127 80.6164 16.127ZM80.3463 16.9909C81.0486 16.9909 81.6331 16.6949 81.9523 16.1747H82.0358V16.905H83.0524V13.3539C83.0524 12.2561 82.2961 11.607 80.9553 11.607C79.7422 11.607 78.8778 12.1797 78.7698 13.0723H79.7913C79.9092 12.7048 80.3168 12.4948 80.9062 12.4948C81.6281 12.4948 82.0014 12.805 82.0014 13.3539V13.8025L80.5526 13.8837C79.2805 13.96 78.5635 14.4994 78.5635 15.4349C78.5635 16.3847 79.3149 16.9909 80.3463 16.9909Z" fill="black"/>
<path d="M86.6357 16.9909C87.3724 16.9909 87.9961 16.652 88.3154 16.084H88.3989V16.905H89.4106V9.67871H88.3547V12.5329H88.2761C87.9863 11.9602 87.3675 11.6213 86.6357 11.6213C85.2851 11.6213 84.4158 12.6618 84.4158 14.3037C84.4158 15.9504 85.2753 16.9909 86.6357 16.9909ZM86.9353 12.5425C87.8193 12.5425 88.3743 13.225 88.3743 14.3085C88.3743 15.3967 87.8242 16.0697 86.9353 16.0697C86.0414 16.0697 85.5061 15.4063 85.5061 14.3037C85.5061 13.2107 86.0464 12.5425 86.9353 12.5425Z" fill="black"/>
<path d="M96.2579 17.0052C97.8197 17.0052 98.7774 15.9886 98.7774 14.3037C98.7774 12.6284 97.8148 11.607 96.2579 11.607C94.6961 11.607 93.7335 12.6284 93.7335 14.3037C93.7335 15.9886 94.6912 17.0052 96.2579 17.0052ZM96.2579 16.0936C95.3395 16.0936 94.8238 15.4397 94.8238 14.3037C94.8238 13.1773 95.3395 12.5186 96.2579 12.5186C97.1714 12.5186 97.692 13.1773 97.692 14.3037C97.692 15.4349 97.1714 16.0936 96.2579 16.0936Z" fill="black"/>
<path d="M100.175 16.905H101.231V13.8646C101.231 13.0532 101.727 12.5473 102.508 12.5473C103.289 12.5473 103.662 12.9625 103.662 13.7978V16.905H104.718V13.54C104.718 12.3038 104.06 11.607 102.867 11.607C102.061 11.607 101.531 11.9554 101.27 12.5329H101.192V11.7072H100.175V16.905Z" fill="black"/>
<path d="M109.581 10.4137V11.7311H108.732V12.595H109.581V15.5303C109.581 16.5327 110.048 16.9336 111.222 16.9336C111.428 16.9336 111.624 16.9097 111.796 16.8811V16.0267C111.649 16.0411 111.556 16.0506 111.394 16.0506C110.868 16.0506 110.637 15.812 110.637 15.2678V12.595H111.796V11.7311H110.637V10.4137H109.581Z" fill="black"/>
<path d="M113.214 16.905H114.27V13.8694C114.27 13.0818 114.751 12.552 115.615 12.552C116.362 12.552 116.76 12.972 116.76 13.8025V16.905H117.816V13.5496C117.816 12.3134 117.113 11.6118 115.974 11.6118C115.168 11.6118 114.604 11.9602 114.343 12.5425H114.26V9.67871H113.214V16.905Z" fill="black"/>
<path d="M121.625 12.4804C122.406 12.4804 122.916 13.0102 122.941 13.8264H120.24C120.299 13.015 120.844 12.4804 121.625 12.4804ZM122.936 15.5017C122.74 15.9074 122.303 16.1317 121.664 16.1317C120.819 16.1317 120.274 15.5542 120.24 14.6426V14.5853H124.017V14.2273C124.017 12.595 123.118 11.607 121.63 11.607C120.122 11.607 119.164 12.6618 119.164 14.3228C119.164 15.9838 120.102 17.0052 121.635 17.0052C122.857 17.0052 123.712 16.4324 123.953 15.5017H122.936Z" fill="black"/>
<path d="M29.31 23.346C29.3356 21.4128 30.4039 19.5836 32.0986 18.5711C31.0294 17.0872 29.2387 16.1464 27.3757 16.0898C25.3886 15.8871 23.4622 17.2453 22.4496 17.2453C21.4174 17.2453 19.8584 16.1099 18.1795 16.1435C15.9912 16.2122 13.9512 17.4213 12.8866 19.2805C10.598 23.1312 12.3051 28.7904 14.4973 31.903C15.5942 33.4272 16.876 35.1297 18.5534 35.0693C20.1947 35.0031 20.8077 34.0522 22.789 34.0522C24.7518 34.0522 25.327 35.0693 27.0383 35.0309C28.7996 35.0031 29.9092 33.5 30.9676 31.9614C31.7557 30.8754 32.3621 29.6751 32.7644 28.405C30.6946 27.5543 29.3124 25.53 29.31 23.346Z" fill="black"/>
<path d="M26.0775 14.0428C27.0378 12.9224 27.5109 11.4824 27.3963 10.0286C25.9292 10.1783 24.574 10.8598 23.6007 11.9371C22.649 12.9897 22.1537 14.4044 22.2473 15.8027C23.715 15.8174 25.1578 15.1544 26.0775 14.0428Z" fill="black"/>
<path d="M4.32122 45.4672L3.93853 46.391L4.32122 45.4672ZM0.532843 41.6788L-0.391036 42.0615L0.532843 41.6788ZM141.467 41.6788L140.543 41.2961L141.467 41.6788ZM137.679 45.4672L137.296 44.5433L137.679 45.4672ZM137.679 0.532843L138.061 -0.391036L137.679 0.532843ZM141.467 4.32122L140.543 4.7039L141.467 4.32122ZM10.5 1H131.5V-1H10.5V1ZM141 10.5V35.5H143V10.5H141ZM131.5 45H10.5V47H131.5V45ZM1 35.5V10.5H-1V35.5H1ZM10.5 45C8.85552 45 7.67225 44.9995 6.73798 44.9357C5.8127 44.8726 5.20494 44.7508 4.7039 44.5433L3.93853 46.391C4.72389 46.7163 5.57473 46.861 6.60184 46.9311C7.61997 47.0005 8.88289 47 10.5 47V45ZM-1 35.5C-1 37.1171 -1.00054 38.38 -0.931075 39.3982C-0.860996 40.4253 -0.716341 41.2761 -0.391036 42.0615L1.45672 41.2961C1.24918 40.7951 1.12742 40.1873 1.06429 39.262C1.00054 38.3278 1 37.1445 1 35.5H-1ZM4.7039 44.5433C3.23373 43.9343 2.06569 42.7663 1.45672 41.2961L-0.391036 42.0615C0.420915 44.0217 1.97831 45.5791 3.93853 46.391L4.7039 44.5433ZM141 35.5C141 37.1445 140.999 38.3278 140.936 39.262C140.873 40.1873 140.751 40.7951 140.543 41.2961L142.391 42.0615C142.716 41.2761 142.861 40.4253 142.931 39.3982C143.001 38.38 143 37.1171 143 35.5H141ZM131.5 47C133.117 47 134.38 47.0005 135.398 46.9311C136.425 46.861 137.276 46.7163 138.061 46.391L137.296 44.5433C136.795 44.7508 136.187 44.8726 135.262 44.9357C134.328 44.9995 133.144 45 131.5 45V47ZM140.543 41.2961C139.934 42.7663 138.766 43.9343 137.296 44.5433L138.061 46.391C140.022 45.5791 141.579 44.0217 142.391 42.0615L140.543 41.2961ZM131.5 1C133.144 1 134.328 1.00054 135.262 1.06429C136.187 1.12742 136.795 1.24918 137.296 1.45672L138.061 -0.391036C137.276 -0.716341 136.425 -0.860996 135.398 -0.931075C134.38 -1.00054 133.117 -1 131.5 -1V1ZM143 10.5C143 8.88289 143.001 7.61997 142.931 6.60184C142.861 5.57473 142.716 4.72389 142.391 3.93853L140.543 4.7039C140.751 5.20494 140.873 5.8127 140.936 6.73798C140.999 7.67225 141 8.85552 141 10.5H143ZM137.296 1.45672C138.766 2.06569 139.934 3.23373 140.543 4.7039L142.391 3.93853C141.579 1.97831 140.022 0.420915 138.061 -0.391036L137.296 1.45672ZM10.5 -1C8.88289 -1 7.61997 -1.00054 6.60184 -0.931075C5.57473 -0.860996 4.72389 -0.716341 3.93853 -0.391036L4.7039 1.45672C5.20494 1.24918 5.8127 1.12742 6.73798 1.06429C7.67225 1.00054 8.85552 1 10.5 1V-1ZM1 10.5C1 8.85552 1.00054 7.67225 1.06429 6.73798C1.12742 5.8127 1.24918 5.20494 1.45672 4.7039L-0.391036 3.93853C-0.716341 4.72389 -0.860996 5.57473 -0.931075 6.60184C-1.00054 7.61997 -1 8.88289 -1 10.5H1ZM3.93853 -0.391036C1.97831 0.420915 0.420915 1.97831 -0.391036 3.93853L1.45672 4.7039C2.06569 3.23373 3.23373 2.06569 4.7039 1.45672L3.93853 -0.391036Z" fill="black"/>
</svg>
